:SAMPLES-PER-SECOND 30
:FULLY-SPECIFIED
:DEGREES
78
root  -36.6929 39.2501 0.165526 -31.7526 -85.7177 43.6857
RightUpLeg  -40.8297 -25.6026 10.5902
RightLeg  20.4383 1.43419 1.73085
RightFoot  4.57052 1.2545 -8.73106
RightToes  2.91037e-010 0 -3.6325e-017
Spine  54.3477 -4.29411 8.81876
Spine1  13.568 -0.261628 -0.221562
HEad  -27.4083 -7.03841 -0.815377
LeftShoulder1  9.19823 -21.822 -30.169
LeftArm  -14.8757 -58.2379 -42.2369
LeftForeArm  31.4623 -4.49217 -4.11332
LeftHand  -0.244104 0.0205437 5.32207
RightShoulder  4.59231 13.4194 20.7657
RightArm  -24.5886 48.3859 36.231
RightForeArm  2.02951 -1.67375 2.67444
RightHand  -1.80391 5.05391 -20.1437
LeftUpLeg  -38.9891 14.3548 -7.93775
LeftLeg  33.9045 4.35367 3.51877
LeftFoot  -7.06072 0.214125 -4.63742
LeftToes  -1.10052e-010 1.3781e-010 -2.1811e-011
79
root  -36.9755 39.1325 0.0338205 -24.8182 -85.2995 39.3864
RightUpLeg  -45.1662 -27.0067 13.8864
RightLeg  22.0892 3.19888 1.33064
RightFoot  3.88245 1.3424 -9.81357
RightToes  2.91037e-010 0 -3.6325e-017
Spine  57.2241 -4.94031 9.42676
Spine1  12.9555 0.0436966 -0.757928
HEad  -31.0626 -7.58176 0.0291028
LeftShoulder1  8.9832 -22.6791 -28.0991
LeftArm  -17.6553 -63.0755 -38.6852
LeftForeArm  29.4536 -2.87079 -3.79758
LeftHand  -0.244104 0.0205437 5.32207
RightShoulder  4.54241 13.7269 19.9367
RightArm  -27.051 53.1137 30.8537
RightForeArm  -0.254822 -1.70387 3.06836
RightHand  -1.75699 5.14893 -19.4681
LeftUpLeg  -41.3132 16.0521 -10.4546
LeftLeg  26.6651 2.78197 1.85098
LeftFoot  -3.78338 0.159403 -2.24199
LeftToes  -1.10052e-010 1.3781e-010 -2.1811e-011
80
root  -37.2758 38.9264 -0.0277613 -17.5193 -85.4436 34.9837
RightUpLeg  -49.3378 -26.3677 16.0862
RightLeg  24.1478 3.01661 1.23052
RightFoot  3.00118 1.34508 -10.486
RightToes  2.91037e-010 0 -3.6325e-017
Spine  60.202 -5.47373 9.93981
Spine1  11.4293 0.652002 -1.5114
HEad  -33.7672 -7.87565 0.564215
LeftShoulder1  8.80525 -23.38 -26.4825
LeftArm  -22.4235 -66.841 -33.1223
LeftForeArm  26.1545 -1.73137 -3.39993
LeftHand  -0.244104 0.0205437 5.32207
RightShoulder  4.36511 13.926 18.5157
RightArm  -30.8944 56.6896 25.2151
RightForeArm  -2.93874 -1.20961 3.27333
RightHand  -1.70103 5.32084 -18.5779
LeftUpLeg  -44.7417 17.3959 -12.7189
LeftLeg  24.056 1.2727 0.943229
LeftFoot  -0.995171 -0.191987 2.25231
LeftToes  -1.10052e-010 1.3781e-010 -2.1811e-011
81
root  -37.575 38.6516 -0.0880804 -11.1988 -85.4544 31.6124
RightUpLeg  -53.6317 -25.2045 17.6653
RightLeg  26.7443 2.31377 1.03314
RightFoot  1.95819 1.28362 -10.852
RightToes  2.91037e-010 0 -3.6325e-017
Spine  62.5378 -5.67999 10.2415
Spine1  10.2552 1.22477 -1.89861
HEad  -36.4498 -8.36075 1.02729
LeftShoulder1  8.45883 -24.2916 -24.0582
LeftArm  -30.2348 -69.7655 -25.3154
LeftForeArm  22.0507 -1.21968 -2.60128
LeftHand  -0.244104 0.0205437 5.32207
RightShoulder  4.04629 13.9122 16.5483
RightArm  -36.9009 59.5423 18.3168
RightForeArm  -5.806 -0.488555 3.14248
RightHand  -1.6023 5.48424 -17.2783
LeftUpLeg  -48.9971 17.0522 -13.773
LeftLeg  26.1381 1.12818 0.948817
LeftFoot  -0.612521 -0.480148 5.18008
LeftToes  -1.10052e-010 1.3781e-010 -2.1811e-011
82
root  -37.882 38.3122 -0.179242 -6.63026 -85.0945 29.802
RightUpLeg  -57.9418 -24.088 18.7555
RightLeg  29.9814 1.35321 0.599389
RightFoot  0.44847 1.15923 -11.1505
RightToes  2.91037e-010 0 -3.6325e-017
Spine  63.9653 -5.69669 10.6262
Spine1  10.0894 1.51149 -1.87648
HEad  -39.5742 -8.92765 1.9453
LeftShoulder1  7.86555 -25.3923 -20.6263
LeftArm  -41.8072 -72.1795 -14.2486
LeftForeArm  17.4259 -0.858132 -1.4119
LeftHand  -0.244104 0.0205437 5.32207
RightShoulder  3.73523 13.7985 14.761
RightArm  -45.8219 61.8394 8.53556
RightForeArm  -9.40413 0.0890989 2.76295
RightHand  -1.47349 5.55222 -15.8398
LeftUpLeg  -53.234 15.9358 -14.0437
LeftLeg  29.7635 1.38024 1.19786
LeftFoot  -1.75947 -0.431498 5.25308
LeftToes  -1.10052e-010 1.3781e-010 -2.1811e-011
83
root  -38.212 37.9533 -0.273489 -2.96071 -84.7492 28.7481
RightUpLeg  -62.0006 -23.0314 19.7095
RightLeg  33.2424 0.502839 0.100871
RightFoot  -1.3162 0.995522 -11.4003
RightToes  2.91037e-010 0 -3.6325e-017
Spine  66.416 -5.6809 10.7668
Spine1  7.8726 1.61464 -1.75833
HEad  -41.2382 -9.03399 2.78352
LeftShoulder1  7.67714 -26.1097 -19.2322
LeftArm  -53.6217 -73.0256 -1.59467
LeftForeArm  12.8234 -0.637572 -0.705626
LeftHand  -0.244104 0.0205437 5.32207
RightShoulder  3.69199 14.1311 14.0384
RightArm  -54.5457 62.5365 -1.75612
RightForeArm  -14.2399 0.520847 2.56903
RightHand  -1.42429 5.68536 -15.1514
LeftUpLeg  -57.242 15.373 -14.6048
LeftLeg  32.7125 1.05274 1.08157
LeftFoot  -2.89518 -0.321133 4.59079
LeftToes  -1.10052e-010 1.3781e-010 -2.1811e-011
84
root  -38.5505 37.6248 -0.335444 1.44322 -84.7861 26.9267
RightUpLeg  -65.6379 -21.8873 20.8431
RightLeg  35.8906 0.104561 -0.184544
RightFoot  -2.73332 0.862402 -11.6502
RightToes  2.91037e-010 0 -3.6325e-017
Spine  68.8076 -5.5581 10.8348
Spine1  5.64163 2.10322 -2.05571
HEad  -41.9482 -9.34741 3.24684
LeftShoulder1  7.71864 -26.8373 -18.6966
LeftArm  -64.1416 -72.8544 9.52836
LeftForeArm  8.44746 -1.16254 -0.0868705
LeftHand  -0.244104 0.0205437 5.32207
RightShoulder  3.69013 14.4788 13.5803
RightArm  -62.5314 62.1619 -11.1133
RightForeArm  -19.8123 0.908645 2.33276
RightHand  -1.53087 6.30523 -15.4187
LeftUpLeg  -61.0864 15.3651 -15.4779
LeftLeg  35.0665 0.680889 0.878391
LeftFoot  -3.75962 -0.305442 4.95914
LeftToes  -1.10052e-010 1.3781e-010 -2.1811e-011
85
root  -38.8641 37.3416 -0.367451 6.21088 -85.0131 24.6388
RightUpLeg  -68.9149 -20.8048 22.0741
RightLeg  37.9721 0.0696987 -0.219141
RightFoot  -3.59174 0.789683 -11.9585
RightToes  2.91037e-010 0 -3.6325e-017
Spine  71.0523 -5.36149 10.6454
Spine1  3.33745 2.62538 -2.563
HEad  -41.8916 -9.67807 3.19575
LeftShoulder1  7.64686 -27.4035 -17.936
LeftArm  -71.8508 -71.6217 17.3237
LeftForeArm  4.15013 -2.6199 0.566281
LeftHand  -0.244104 0.0205437 5.32207
RightShoulder  3.61464 14.8869 12.6254
RightArm  -68.3047 61.0626 -17.8374
RightForeArm  -24.3794 1.40389 2.07144
RightHand  -1.67761 7.37513 -15.5057
LeftUpLeg  -64.6316 15.3341 -16.2348
LeftLeg  37.2968 0.640339 0.896446
LeftFoot  -4.68436 -0.306997 5.75632
LeftToes  -1.10052e-010 1.3781e-010 -2.1811e-011
86
root  -39.1437 37.1052 -0.39668 8.39206 -85.0495 24.7072
RightUpLeg  -71.982 -20.0862 23.1152
RightLeg  39.8452 0.123705 -0.177844
RightFoot  -4.17212 0.741581 -12.2252
RightToes  2.91037e-010 0 -3.6325e-017
Spine  72.8626 -5.22333 10.134
Spine1  1.52174 2.68725 -3.01811
HEad  -41.8683 -9.53525 3.23494
LeftShoulder1  7.16548 -27.8848 -15.8625
LeftArm  -77.3791 -69.3178 22.699
LeftForeArm  0.0885835 -4.30096 1.44548
LeftHand  -0.244104 0.0205437 5.32207
RightShoulder  3.35209 15.196 10.7068
RightArm  -71.9452 59.7342 -21.9103
RightForeArm  -27.4797 2.09565 1.81925
RightHand  -1.64686 8.18032 -14.3557
LeftUpLeg  -67.6349 15.1229 -17.0515
LeftLeg  39.0841 0.536448 0.846537
LeftFoot  -5.5109 -0.273668 6.0159
LeftToes  -1.10052e-010 1.3781e-010 -2.1811e-011
87
root  -39.4079 36.9126 -0.431327 7.82242 -84.9366 27.2753
RightUpLeg  -74.7747 -19.6484 23.9394
RightLeg  41.55 0.130373 -0.1753
RightFoot  -4.73488 0.684978 -12.3576
RightToes  2.91037e-010 0 -3.6325e-017
Spine  74.1604 -5.16163 9.34517
Spine1  0.576194 2.29539 -3.39418
HEad  -42.2292 -8.70556 3.71938
LeftShoulder1  6.35152 -28.1863 -12.8219
LeftArm  -81.3763 -66.3283 26.4868
LeftForeArm  -3.35983 -5.6304 2.54205
LeftHand  -0.244104 0.0205437 5.32207
RightShoulder  2.84178 15.0387 7.79918
RightArm  -74.4917 58.7539 -23.5556
RightForeArm  -29.9615 3.00176 1.45734
RightHand  -1.46238 8.4544 -12.5634
LeftUpLeg  -70.1046 14.9955 -18.2188
LeftLeg  40.1994 0.167946 0.537786
LeftFoot  -6.07157 -0.241109 6.03092
LeftToes  -1.10052e-010 1.3781e-010 -2.1811e-011
